<mxfile host="app.diagrams.net" modified="2022-05-17T07:27:27.936Z" agent="5.0 (Macintosh; Intel Mac OS X 10_15_7) AppleWebKit/537.36 (KHTML, like Gecko) Chrome/101.0.4951.54 Safari/537.36" etag="jBBsl8Eq--ypln_SMV3C" version="17.4.6" type="github">
  <diagram id="C5RBs43oDa-KdzZeNtuy" name="Free Trade-price">
    <mxGraphModel dx="717" dy="737" grid="1" gridSize="10" guides="1" tooltips="1" connect="1" arrows="1" fold="1" page="1" pageScale="1" pageWidth="827" pageHeight="1169" math="0" shadow="0">
      <root>
        <mxCell id="WIyWlLk6GJQsqaUBKTNV-0" />
        <mxCell id="WIyWlLk6GJQsqaUBKTNV-1" parent="WIyWlLk6GJQsqaUBKTNV-0" />
        <mxCell id="8Q-pIplph5TEar5vGYZh-5" value="" style="edgeStyle=orthogonalEdgeStyle;rounded=0;orthogonalLoop=1;jettySize=auto;html=1;" edge="1" parent="WIyWlLk6GJQsqaUBKTNV-1" source="8Q-pIplph5TEar5vGYZh-0" target="8Q-pIplph5TEar5vGYZh-4">
          <mxGeometry relative="1" as="geometry" />
        </mxCell>
        <mxCell id="8Q-pIplph5TEar5vGYZh-3" style="edgeStyle=orthogonalEdgeStyle;rounded=0;orthogonalLoop=1;jettySize=auto;html=1;" edge="1" parent="WIyWlLk6GJQsqaUBKTNV-1" source="8Q-pIplph5TEar5vGYZh-2" target="8Q-pIplph5TEar5vGYZh-0">
          <mxGeometry relative="1" as="geometry" />
        </mxCell>
        <mxCell id="8Q-pIplph5TEar5vGYZh-2" value="Start ares-node" style="rounded=1;whiteSpace=wrap;html=1;" vertex="1" parent="WIyWlLk6GJQsqaUBKTNV-1">
          <mxGeometry x="210" y="120" width="120" height="60" as="geometry" />
        </mxCell>
        <mxCell id="8Q-pIplph5TEar5vGYZh-7" value="" style="edgeStyle=orthogonalEdgeStyle;rounded=0;orthogonalLoop=1;jettySize=auto;html=1;exitX=0.5;exitY=1;exitDx=0;exitDy=0;entryX=0;entryY=0.5;entryDx=0;entryDy=0;" edge="1" parent="WIyWlLk6GJQsqaUBKTNV-1" source="8Q-pIplph5TEar5vGYZh-4" target="8Q-pIplph5TEar5vGYZh-6">
          <mxGeometry relative="1" as="geometry" />
        </mxCell>
        <mxCell id="8Q-pIplph5TEar5vGYZh-12" value="Yes" style="edgeLabel;html=1;align=center;verticalAlign=middle;resizable=0;points=[];" vertex="1" connectable="0" parent="8Q-pIplph5TEar5vGYZh-7">
          <mxGeometry x="-0.3857" y="2" relative="1" as="geometry">
            <mxPoint as="offset" />
          </mxGeometry>
        </mxCell>
        <mxCell id="8Q-pIplph5TEar5vGYZh-14" value="" style="edgeStyle=orthogonalEdgeStyle;rounded=0;orthogonalLoop=1;jettySize=auto;html=1;" edge="1" parent="WIyWlLk6GJQsqaUBKTNV-1" source="8Q-pIplph5TEar5vGYZh-4" target="8Q-pIplph5TEar5vGYZh-13">
          <mxGeometry relative="1" as="geometry" />
        </mxCell>
        <mxCell id="8Q-pIplph5TEar5vGYZh-15" value="No" style="edgeLabel;html=1;align=center;verticalAlign=middle;resizable=0;points=[];" vertex="1" connectable="0" parent="8Q-pIplph5TEar5vGYZh-14">
          <mxGeometry x="-0.2" y="-1" relative="1" as="geometry">
            <mxPoint as="offset" />
          </mxGeometry>
        </mxCell>
        <mxCell id="8Q-pIplph5TEar5vGYZh-4" value="Is it a block producer?" style="rhombus;whiteSpace=wrap;html=1;" vertex="1" parent="WIyWlLk6GJQsqaUBKTNV-1">
          <mxGeometry x="230" y="380" width="80" height="80" as="geometry" />
        </mxCell>
        <mxCell id="8Q-pIplph5TEar5vGYZh-9" value="" style="edgeStyle=orthogonalEdgeStyle;rounded=0;orthogonalLoop=1;jettySize=auto;html=1;" edge="1" parent="WIyWlLk6GJQsqaUBKTNV-1" source="8Q-pIplph5TEar5vGYZh-6" target="8Q-pIplph5TEar5vGYZh-8">
          <mxGeometry relative="1" as="geometry" />
        </mxCell>
        <mxCell id="8Q-pIplph5TEar5vGYZh-6" value="Get off-chain prices" style="rounded=0;whiteSpace=wrap;html=1;" vertex="1" parent="WIyWlLk6GJQsqaUBKTNV-1">
          <mxGeometry x="354" y="610" width="120" height="60" as="geometry" />
        </mxCell>
        <mxCell id="8Q-pIplph5TEar5vGYZh-11" value="" style="edgeStyle=orthogonalEdgeStyle;rounded=0;orthogonalLoop=1;jettySize=auto;html=1;" edge="1" parent="WIyWlLk6GJQsqaUBKTNV-1" source="8Q-pIplph5TEar5vGYZh-8" target="8Q-pIplph5TEar5vGYZh-10">
          <mxGeometry relative="1" as="geometry" />
        </mxCell>
        <mxCell id="8Q-pIplph5TEar5vGYZh-8" value="Submit to the chain" style="rounded=0;whiteSpace=wrap;html=1;" vertex="1" parent="WIyWlLk6GJQsqaUBKTNV-1">
          <mxGeometry x="550" y="610" width="120" height="60" as="geometry" />
        </mxCell>
        <mxCell id="8Q-pIplph5TEar5vGYZh-17" value="" style="edgeStyle=orthogonalEdgeStyle;rounded=0;orthogonalLoop=1;jettySize=auto;html=1;" edge="1" parent="WIyWlLk6GJQsqaUBKTNV-1" source="8Q-pIplph5TEar5vGYZh-10" target="8Q-pIplph5TEar5vGYZh-16">
          <mxGeometry relative="1" as="geometry" />
        </mxCell>
        <mxCell id="8Q-pIplph5TEar5vGYZh-33" value="Yes" style="edgeLabel;html=1;align=center;verticalAlign=middle;resizable=0;points=[];" vertex="1" connectable="0" parent="8Q-pIplph5TEar5vGYZh-17">
          <mxGeometry x="-0.36" y="-1" relative="1" as="geometry">
            <mxPoint as="offset" />
          </mxGeometry>
        </mxCell>
        <mxCell id="8Q-pIplph5TEar5vGYZh-10" value="Reach aggregation depth?" style="rhombus;whiteSpace=wrap;html=1;" vertex="1" parent="WIyWlLk6GJQsqaUBKTNV-1">
          <mxGeometry x="730" y="600" width="80" height="80" as="geometry" />
        </mxCell>
        <mxCell id="8Q-pIplph5TEar5vGYZh-18" style="edgeStyle=orthogonalEdgeStyle;rounded=0;orthogonalLoop=1;jettySize=auto;html=1;entryX=1;entryY=0.5;entryDx=0;entryDy=0;" edge="1" parent="WIyWlLk6GJQsqaUBKTNV-1" source="8Q-pIplph5TEar5vGYZh-16" target="8Q-pIplph5TEar5vGYZh-13">
          <mxGeometry relative="1" as="geometry" />
        </mxCell>
        <mxCell id="8Q-pIplph5TEar5vGYZh-16" value="Aggregate average price" style="rounded=0;whiteSpace=wrap;html=1;" vertex="1" parent="WIyWlLk6GJQsqaUBKTNV-1">
          <mxGeometry x="710" y="390" width="120" height="60" as="geometry" />
        </mxCell>
        <mxCell id="8Q-pIplph5TEar5vGYZh-25" value="" style="group" vertex="1" connectable="0" parent="WIyWlLk6GJQsqaUBKTNV-1">
          <mxGeometry x="100" y="200" width="770" height="540" as="geometry" />
        </mxCell>
        <mxCell id="8Q-pIplph5TEar5vGYZh-23" value="" style="endArrow=none;dashed=1;html=1;dashPattern=1 3;strokeWidth=2;rounded=0;" edge="1" parent="8Q-pIplph5TEar5vGYZh-25">
          <mxGeometry width="50" height="50" relative="1" as="geometry">
            <mxPoint x="20" y="20" as="sourcePoint" />
            <mxPoint x="770" y="20" as="targetPoint" />
          </mxGeometry>
        </mxCell>
        <mxCell id="8Q-pIplph5TEar5vGYZh-24" value="" style="endArrow=none;dashed=1;html=1;dashPattern=1 3;strokeWidth=2;rounded=0;" edge="1" parent="8Q-pIplph5TEar5vGYZh-25">
          <mxGeometry width="50" height="50" relative="1" as="geometry">
            <mxPoint x="20" y="531" as="sourcePoint" />
            <mxPoint x="763.3863801117569" y="530.922402257836" as="targetPoint" />
          </mxGeometry>
        </mxCell>
        <mxCell id="8Q-pIplph5TEar5vGYZh-27" value="Block Generation Loop" style="text;whiteSpace=wrap;html=1;" vertex="1" parent="8Q-pIplph5TEar5vGYZh-25">
          <mxGeometry x="30" y="25" width="140" height="30" as="geometry" />
        </mxCell>
        <mxCell id="8Q-pIplph5TEar5vGYZh-0" value="Offchain-work trigger" style="rounded=0;whiteSpace=wrap;html=1;" vertex="1" parent="8Q-pIplph5TEar5vGYZh-25">
          <mxGeometry x="110" y="70" width="120" height="60" as="geometry" />
        </mxCell>
        <mxCell id="8Q-pIplph5TEar5vGYZh-26" value="" style="endArrow=none;dashed=1;html=1;dashPattern=1 3;strokeWidth=2;rounded=0;" edge="1" parent="8Q-pIplph5TEar5vGYZh-25">
          <mxGeometry width="50" height="50" relative="1" as="geometry">
            <mxPoint x="20" y="524" as="sourcePoint" />
            <mxPoint x="19.995520447027673" y="24.00136392623756" as="targetPoint" />
          </mxGeometry>
        </mxCell>
        <mxCell id="8Q-pIplph5TEar5vGYZh-13" value="End" style="ellipse;whiteSpace=wrap;html=1;" vertex="1" parent="8Q-pIplph5TEar5vGYZh-25">
          <mxGeometry x="380" y="190" width="90" height="60" as="geometry" />
        </mxCell>
        <mxCell id="8Q-pIplph5TEar5vGYZh-22" value="" style="endArrow=none;dashed=1;html=1;dashPattern=1 3;strokeWidth=2;rounded=0;" edge="1" parent="WIyWlLk6GJQsqaUBKTNV-1">
          <mxGeometry width="50" height="50" relative="1" as="geometry">
            <mxPoint x="870" y="730" as="sourcePoint" />
            <mxPoint x="870" y="220" as="targetPoint" />
          </mxGeometry>
        </mxCell>
      </root>
    </mxGraphModel>
  </diagram>
</mxfile>
